<svg xmlns="http://www.w3.org/2000/svg" version="1.1" xmlns:xlink="http://www.w3.org/1999/xlink" xmlns:svgjs="http://svgjs.com/svgjs" width="400" height="400"><svg id="SvgjsSvg1006" version="1.1" xmlns="http://www.w3.org/2000/svg" xmlns:xlink="http://www.w3.org/1999/xlink" width="400" height="400" viewBox="0, 0, 400,400"><g id="SvgjsG1005"><path id="SvgjsPath1004" d="M86.400 12.400 C 86.400 12.620,85.858 12.800,85.195 12.800 C 84.532 12.800,83.677 12.959,83.295 13.153 C 82.913 13.348,82.150 13.685,81.600 13.903 C 79.311 14.809,76.800 16.148,76.800 16.463 C 76.800 16.648,76.570 16.800,76.288 16.800 C 76.007 16.800,75.517 17.160,75.200 17.600 C 74.883 18.040,74.390 18.400,74.104 18.400 C 73.428 18.400,68.400 23.428,68.400 24.104 C 68.400 24.390,68.040 24.883,67.600 25.200 C 67.160 25.517,66.800 26.007,66.800 26.288 C 66.800 26.570,66.648 26.800,66.463 26.800 C 66.148 26.800,64.809 29.311,63.903 31.600 C 63.685 32.150,63.348 32.913,63.153 33.295 C 62.959 33.677,62.800 34.532,62.800 35.195 C 62.800 35.858,62.620 36.400,62.400 36.400 C 62.134 36.400,62.000 91.200,62.000 200.000 C 62.000 308.800,62.134 363.600,62.400 363.600 C 62.620 363.600,62.800 364.142,62.800 364.805 C 62.800 365.468,62.959 366.323,63.153 366.705 C 63.348 367.087,63.685 367.850,63.903 368.400 C 64.809 370.689,66.148 373.200,66.463 373.200 C 66.648 373.200,66.800 373.468,66.800 373.797 C 66.800 374.125,67.160 374.618,67.600 374.893 C 68.040 375.168,68.400 375.622,68.400 375.904 C 68.400 376.575,73.432 381.600,74.104 381.600 C 74.390 381.600,74.883 381.960,75.200 382.400 C 75.517 382.840,76.007 383.200,76.288 383.200 C 76.570 383.200,76.800 383.347,76.800 383.526 C 76.800 383.992,79.931 385.600,80.838 385.600 C 81.257 385.600,81.600 385.780,81.600 386.000 C 81.600 386.220,81.949 386.400,82.376 386.400 C 82.803 386.400,83.264 386.580,83.400 386.800 C 83.536 387.020,84.267 387.200,85.024 387.200 C 85.781 387.200,86.400 387.380,86.400 387.600 C 86.400 387.866,126.333 388.000,205.400 388.000 C 284.467 388.000,324.400 387.866,324.400 387.600 C 324.400 387.380,324.940 387.200,325.600 387.200 C 326.260 387.200,326.800 387.020,326.800 386.800 C 326.800 386.580,327.160 386.400,327.600 386.400 C 328.040 386.400,328.400 386.220,328.400 386.000 C 328.400 385.780,328.661 385.600,328.981 385.600 C 329.737 385.600,335.600 379.737,335.600 378.981 C 335.600 378.661,335.780 378.400,336.000 378.400 C 336.220 378.400,336.400 378.040,336.400 377.600 C 336.400 377.160,336.580 376.800,336.800 376.800 C 337.020 376.800,337.200 376.260,337.200 375.600 C 337.200 374.940,337.380 374.400,337.600 374.400 C 337.866 374.400,338.000 317.800,338.000 205.400 C 338.000 93.000,337.866 36.400,337.600 36.400 C 337.380 36.400,337.200 35.781,337.200 35.024 C 337.200 34.267,337.020 33.536,336.800 33.400 C 336.580 33.264,336.400 32.803,336.400 32.376 C 336.400 31.949,336.220 31.600,336.000 31.600 C 335.780 31.600,335.600 31.257,335.600 30.838 C 335.600 29.931,333.992 26.800,333.526 26.800 C 333.347 26.800,333.200 26.570,333.200 26.288 C 333.200 26.007,332.840 25.517,332.400 25.200 C 331.960 24.883,331.600 24.390,331.600 24.104 C 331.600 23.432,326.575 18.400,325.904 18.400 C 325.622 18.400,325.168 18.040,324.893 17.600 C 324.618 17.160,324.125 16.800,323.797 16.800 C 323.468 16.800,323.200 16.648,323.200 16.463 C 323.200 16.148,320.689 14.809,318.400 13.903 C 317.850 13.685,317.087 13.348,316.705 13.153 C 316.323 12.959,315.468 12.800,314.805 12.800 C 314.142 12.800,313.600 12.620,313.600 12.400 C 313.600 12.134,275.467 12.000,200.000 12.000 C 124.533 12.000,86.400 12.134,86.400 12.400 M310.520 25.362 C 317.710 27.235,323.284 32.936,324.754 39.920 C 325.482 43.381,325.370 307.924,324.639 310.670 C 322.786 317.630,317.630 322.786,310.670 324.639 C 308.937 325.101,291.619 325.191,204.300 325.195 L 100.000 325.200 99.993 249.500 L 99.987 173.800 99.085 172.208 C 96.655 167.917,90.807 167.803,88.447 172.002 L 87.600 173.509 87.600 249.527 L 87.600 325.545 84.431 326.543 C 81.385 327.501,78.583 328.852,76.345 330.441 C 75.300 331.183,75.289 331.182,75.051 330.295 C 74.641 328.765,74.771 45.703,75.184 42.116 C 75.698 37.646,77.548 33.680,80.473 30.778 C 82.772 28.497,86.511 26.174,87.199 26.599 C 87.464 26.763,87.600 43.789,87.600 76.669 L 87.600 126.491 88.447 127.998 C 90.807 132.197,96.655 132.083,99.085 127.792 L 99.987 126.200 99.993 75.500 L 100.000 24.800 204.180 24.800 C 292.385 24.800,308.692 24.886,310.520 25.362 M272.706 38.261 C 270.624 39.359,269.700 41.287,266.231 51.781 C 262.464 63.178,262.486 63.069,263.586 65.492 C 265.005 68.618,269.265 69.855,272.281 68.016 C 273.825 67.075,274.296 66.185,275.996 61.000 C 276.718 58.800,277.455 56.640,277.635 56.200 C 279.282 52.168,281.200 45.377,281.200 43.579 C 281.200 39.171,276.529 36.247,272.706 38.261 M147.800 44.965 C 145.386 46.038,143.682 49.147,144.240 51.460 C 144.790 53.739,157.723 78.991,158.909 80.100 C 162.301 83.273,168.800 80.193,168.800 75.412 C 168.800 73.859,156.306 48.265,154.661 46.448 C 152.934 44.541,150.122 43.933,147.800 44.965 M300.200 70.582 C 297.560 71.509,295.130 72.364,294.800 72.482 C 294.470 72.599,292.400 73.270,290.200 73.972 C 283.577 76.087,282.463 76.860,281.615 79.930 C 280.481 84.037,284.780 88.271,288.959 87.165 C 291.379 86.524,307.202 81.236,308.606 80.599 C 313.622 78.322,313.528 71.492,308.451 69.365 C 306.518 68.555,305.572 68.695,300.200 70.582 M114.892 76.240 C 112.244 78.326,111.585 81.820,113.351 84.407 C 114.419 85.972,139.606 98.994,142.457 99.455 C 146.122 100.048,149.200 97.364,149.200 93.576 C 149.200 89.823,148.628 89.395,133.449 81.789 C 118.656 74.377,117.641 74.073,114.892 76.240 M197.103 78.033 C 193.067 78.985,190.827 81.684,188.831 88.000 C 188.101 90.310,187.352 92.560,187.166 93.000 C 186.980 93.440,186.435 95.060,185.956 96.600 C 185.477 98.140,183.871 103.090,182.387 107.600 C 180.904 112.110,178.310 120.030,176.624 125.200 C 174.937 130.370,173.412 134.960,173.234 135.400 C 173.056 135.840,172.691 136.920,172.422 137.800 C 172.153 138.680,171.646 140.184,171.296 141.141 L 170.660 142.883 167.230 142.622 C 161.454 142.182,154.348 140.617,149.700 138.760 C 149.205 138.562,148.395 138.238,147.900 138.039 C 147.405 137.841,145.740 137.093,144.200 136.377 C 136.736 132.907,131.985 136.957,134.318 144.800 C 134.547 145.570,135.124 147.460,135.600 149.000 C 140.202 163.881,141.794 175.834,140.193 183.505 C 137.739 195.271,131.233 203.997,116.499 215.285 C 112.607 218.266,111.583 220.757,113.011 223.767 C 114.490 226.883,115.054 227.054,125.600 227.572 C 150.082 228.776,156.973 231.748,154.343 239.972 C 152.558 245.553,150.669 249.588,146.482 256.754 C 142.821 263.022,143.787 267.327,149.157 268.675 C 150.110 268.914,157.663 266.710,158.580 265.925 C 158.789 265.746,159.363 265.600,159.856 265.600 C 160.349 265.600,160.851 265.441,160.971 265.246 C 161.092 265.051,161.687 264.796,162.295 264.679 C 162.903 264.562,164.030 264.287,164.800 264.068 C 178.118 260.279,185.371 259.859,194.800 262.330 C 203.591 264.634,213.065 271.940,226.680 286.914 C 233.091 293.965,235.094 294.953,238.404 292.700 C 241.189 290.804,241.397 290.185,241.429 283.670 C 241.467 275.865,241.734 273.739,243.577 266.530 C 245.532 258.888,253.446 249.634,260.900 246.276 C 267.853 243.144,271.768 242.182,279.800 241.634 C 285.132 241.270,294.339 241.673,297.477 242.407 C 302.709 243.632,306.454 241.327,306.522 236.841 C 306.559 234.380,305.978 233.488,302.361 230.446 C 277.086 209.193,277.358 203.129,304.302 187.079 C 312.118 182.424,313.448 180.599,311.835 176.749 C 310.738 174.131,309.643 173.533,303.200 172.036 C 299.316 171.134,295.243 170.118,293.200 169.542 C 292.430 169.324,291.170 168.995,290.400 168.810 C 285.453 167.621,269.600 162.450,269.600 162.026 C 269.600 161.868,270.731 159.952,272.113 157.769 C 277.067 149.943,276.602 144.873,270.595 141.233 L 268.561 140.000 252.838 140.000 C 239.151 140.000,237.144 139.924,237.341 139.411 C 237.565 138.826,245.148 127.583,245.576 127.200 C 245.699 127.090,245.980 126.705,246.200 126.345 C 246.632 125.638,252.081 117.765,259.452 107.200 C 270.809 90.922,271.138 90.309,270.665 86.322 C 270.199 82.388,267.554 79.430,263.375 78.173 C 261.178 77.511,199.863 77.383,197.103 78.033 M255.881 89.918 C 256.220 90.133,255.867 90.890,254.681 92.490 C 253.756 93.737,250.930 97.762,248.400 101.434 C 240.720 112.580,235.636 119.939,230.600 127.197 C 227.960 131.002,225.350 134.765,224.800 135.558 C 221.349 140.535,221.708 145.785,225.754 149.515 C 228.529 152.073,229.045 152.133,245.900 151.882 C 257.179 151.713,260.799 151.774,260.798 152.130 C 260.797 152.388,259.807 154.101,258.598 155.936 C 257.389 157.770,256.400 159.333,256.400 159.407 C 256.400 159.482,255.320 161.174,254.000 163.168 C 246.565 174.395,235.402 191.421,230.375 199.200 C 222.783 210.947,217.970 218.000,217.544 218.000 C 217.201 218.000,217.147 216.661,217.340 212.900 C 217.484 210.095,217.778 202.760,217.992 196.600 C 218.207 190.440,218.495 184.477,218.631 183.350 C 219.200 178.656,216.913 174.028,213.120 172.199 L 211.050 171.200 192.949 171.200 C 182.993 171.200,174.759 171.057,174.651 170.883 C 174.447 170.552,174.689 169.781,181.152 150.200 C 186.501 133.995,193.490 112.565,194.068 110.600 C 194.327 109.720,194.688 108.829,194.870 108.620 C 195.051 108.411,195.200 107.914,195.200 107.515 C 195.200 107.116,195.361 106.477,195.559 106.095 C 195.756 105.713,196.873 102.430,198.041 98.800 C 199.209 95.170,200.400 91.615,200.688 90.900 L 201.211 89.600 228.305 89.606 C 243.207 89.609,255.616 89.750,255.881 89.918 M91.825 144.216 C 86.523 146.039,86.044 152.674,91.012 155.487 C 95.293 157.910,101.247 153.085,99.633 148.500 C 98.401 145.004,94.985 143.129,91.825 144.216 M154.824 152.756 C 157.341 153.392,160.480 154.029,161.800 154.172 C 167.351 154.773,167.155 153.807,163.800 164.060 C 161.014 172.575,160.897 173.267,161.766 176.154 C 162.518 178.652,164.014 180.539,166.314 181.891 L 168.200 183.000 187.200 183.200 L 206.200 183.400 206.186 188.400 C 206.174 192.890,205.568 209.740,204.932 223.270 C 204.517 232.119,207.267 236.523,213.561 237.088 C 218.642 237.544,220.875 235.936,225.967 228.152 C 234.386 215.281,247.447 195.266,254.256 184.800 C 258.335 178.530,261.892 173.171,262.159 172.891 C 262.608 172.422,266.909 173.598,270.600 175.200 C 271.523 175.601,274.894 176.696,279.200 177.993 C 280.850 178.490,282.650 179.034,283.200 179.202 C 283.750 179.370,285.010 179.727,286.000 179.995 C 290.483 181.211,290.481 181.191,286.340 184.217 C 279.712 189.063,274.783 194.792,272.730 200.040 C 271.767 202.500,271.486 209.691,272.269 211.812 C 272.510 212.465,272.946 213.810,273.237 214.800 C 274.452 218.922,276.886 222.885,280.539 226.685 C 282.858 229.098,282.928 229.034,277.600 229.385 C 253.893 230.944,235.202 246.215,230.583 267.800 C 229.614 272.331,229.786 272.287,226.200 268.931 C 222.043 265.041,217.116 260.895,214.600 259.171 C 213.500 258.417,212.510 257.702,212.400 257.582 C 211.465 256.564,203.713 252.652,200.282 251.467 C 190.878 248.219,178.353 247.985,167.307 250.850 C 165.716 251.262,164.120 251.600,163.761 251.600 C 163.017 251.600,162.946 251.913,165.028 246.000 C 170.739 229.776,162.767 219.662,142.000 216.786 C 134.172 215.702,134.587 216.202,138.200 212.202 C 144.016 205.763,148.431 198.521,150.575 191.900 C 153.312 183.451,153.415 170.845,150.841 159.400 C 150.502 157.894,149.900 155.187,149.350 152.700 C 149.042 151.308,149.096 151.309,154.824 152.756 M287.616 267.448 C 285.377 269.332,284.536 272.357,285.648 274.526 C 286.211 275.623,288.440 278.000,288.906 278.000 C 289.099 278.000,290.041 278.540,291.000 279.200 C 291.959 279.860,292.859 280.400,293.000 280.400 C 293.141 280.400,294.041 280.940,295.000 281.600 C 295.959 282.260,296.859 282.800,297.000 282.800 C 297.141 282.800,298.041 283.340,299.000 284.000 C 299.959 284.660,300.840 285.200,300.958 285.200 C 301.076 285.200,302.024 285.740,303.064 286.400 C 310.251 290.957,316.843 281.246,309.836 276.425 C 308.340 275.396,305.938 273.925,302.600 271.994 C 301.940 271.612,299.600 270.198,297.400 268.852 C 292.571 265.895,289.914 265.514,287.616 267.448 M129.400 275.885 C 127.591 276.357,126.250 277.997,119.923 287.474 C 112.299 298.893,112.400 298.718,112.401 300.474 C 112.403 305.263,118.468 308.311,122.031 305.313 C 125.217 302.632,136.800 284.148,136.800 281.745 C 136.800 277.709,133.233 274.884,129.400 275.885 M154.872 281.699 C 152.030 282.625,150.005 285.964,150.635 288.685 C 151.047 290.461,155.577 304.128,156.009 304.895 C 156.224 305.277,156.400 305.864,156.400 306.199 C 156.400 310.085,161.560 313.474,165.081 311.900 C 169.803 309.790,169.847 307.769,165.448 294.720 C 161.126 281.898,159.689 280.128,154.872 281.699 M267.331 281.686 C 265.160 282.391,263.516 284.456,263.295 286.755 C 263.056 289.242,269.065 308.102,270.725 310.076 C 276.255 316.648,284.432 308.611,279.958 301.000 C 279.829 300.780,279.489 299.700,279.203 298.600 C 278.916 297.500,278.529 296.429,278.341 296.220 C 278.153 296.011,278.000 295.437,278.000 294.944 C 278.000 294.451,277.841 293.949,277.646 293.829 C 277.451 293.708,277.204 293.113,277.096 292.505 C 275.702 284.656,271.731 280.257,267.331 281.686 M325.000 340.833 L 325.000 349.800 218.000 350.000 C 138.919 350.148,110.739 350.319,110.000 350.658 C 105.631 352.656,105.244 358.958,109.338 361.436 C 110.570 362.182,113.180 362.205,217.800 362.400 L 325.000 362.600 325.000 366.600 C 325.000 371.140,324.354 372.738,321.928 374.200 C 320.349 375.151,96.298 375.718,90.800 374.785 C 71.060 371.434,69.532 344.003,88.760 338.167 C 90.315 337.695,107.417 337.608,199.200 337.604 C 314.591 337.599,310.642 337.660,316.200 335.795 C 318.649 334.973,322.789 332.938,323.589 332.163 C 324.859 330.934,325.000 331.801,325.000 340.833 " stroke="none" fill="#1d140c" fill-rule="evenodd"></path><path id="SvgjsPath1003" d="M323.554 332.346 C 322.265 333.354,319.038 334.955,316.600 335.796 C 311.141 337.680,316.270 337.600,200.520 337.600 C 106.282 337.600,91.337 337.679,89.394 338.185 C 70.886 343.005,70.442 368.717,88.773 374.155 C 92.545 375.275,320.062 375.125,321.904 374.002 C 324.240 372.578,324.797 371.135,324.799 366.500 L 324.800 362.400 217.700 362.399 C 111.537 362.397,110.589 362.390,109.296 361.602 C 105.344 359.193,105.403 353.093,109.400 350.759 C 110.535 350.096,116.411 350.057,217.700 350.029 L 324.800 350.000 324.800 340.800 C 324.800 335.740,324.734 331.600,324.654 331.600 C 324.574 331.600,324.079 331.936,323.554 332.346 " stroke="none" fill="#cbdbeb" fill-rule="evenodd"></path><path id="SvgjsPath1002" d="M199.003 97.100 C 197.735 101.005,194.679 110.320,192.212 117.800 C 189.744 125.280,185.784 137.340,183.410 144.600 C 181.036 151.860,178.218 160.434,177.147 163.653 C 176.076 166.872,175.200 169.797,175.200 170.153 C 175.200 170.739,176.856 170.800,192.854 170.800 C 212.367 170.800,212.609 170.826,215.376 173.262 C 218.963 176.420,219.422 180.083,218.416 197.540 C 218.205 201.203,217.951 207.170,217.852 210.800 L 217.671 217.400 218.632 216.200 C 219.161 215.540,220.720 213.248,222.097 211.107 C 223.473 208.966,228.875 200.723,234.100 192.790 C 239.325 184.857,243.600 178.222,243.600 178.045 C 243.600 177.868,243.960 177.398,244.400 177.000 C 244.840 176.602,245.200 176.135,245.200 175.962 C 245.200 175.790,248.530 170.601,252.600 164.432 C 256.670 158.263,260.000 152.987,260.000 152.708 C 260.000 152.304,256.980 152.225,245.300 152.324 C 235.836 152.403,230.089 152.297,229.165 152.027 C 224.350 150.617,221.370 145.598,222.172 140.249 C 222.481 138.185,222.627 137.956,234.688 120.600 C 235.300 119.720,237.411 116.660,239.379 113.800 C 241.348 110.940,243.058 108.510,243.179 108.400 C 243.301 108.290,243.580 107.910,243.800 107.556 C 244.649 106.190,250.258 98.020,252.865 94.353 C 254.369 92.237,255.600 90.392,255.600 90.253 C 255.600 90.114,243.384 90.000,228.454 90.000 L 201.308 90.000 199.003 97.100 M149.722 152.675 C 149.828 153.074,150.124 154.300,150.381 155.400 C 150.637 156.500,150.999 158.030,151.184 158.800 C 151.370 159.570,151.713 161.370,151.946 162.800 C 152.179 164.230,152.575 166.660,152.826 168.200 C 154.645 179.382,150.809 197.417,145.185 204.126 C 144.967 204.387,143.864 205.860,142.734 207.400 C 141.604 208.940,139.671 211.247,138.440 212.527 C 135.601 215.476,135.607 215.438,137.886 215.735 C 163.396 219.067,171.559 228.225,165.318 246.509 C 164.027 250.292,163.837 251.186,164.355 251.052 C 188.709 244.757,205.627 249.166,224.325 266.682 C 229.290 271.333,229.600 271.549,229.600 270.366 C 229.600 269.886,229.794 268.752,230.032 267.846 C 230.269 266.941,230.647 265.480,230.871 264.600 C 231.095 263.720,231.440 262.687,231.639 262.305 C 231.838 261.923,232.000 261.417,232.000 261.179 C 232.000 260.167,235.010 254.361,237.368 250.825 C 242.136 243.676,248.462 238.355,256.759 234.516 C 262.794 231.724,262.660 231.771,269.400 230.060 C 271.316 229.573,277.042 228.813,279.725 228.689 L 281.649 228.600 279.777 226.600 C 266.546 212.469,268.828 196.601,285.900 184.026 C 288.946 181.783,289.243 181.381,288.100 181.053 C 287.715 180.942,286.050 180.477,284.400 180.019 C 280.737 179.003,273.694 176.826,272.600 176.372 C 272.160 176.190,270.990 175.778,270.000 175.458 C 267.657 174.700,264.841 173.641,263.666 173.077 C 262.646 172.587,261.772 173.362,260.706 175.700 C 260.430 176.305,260.069 176.800,259.902 176.800 C 259.736 176.800,259.600 176.969,259.600 177.176 C 259.600 177.383,255.550 183.690,250.600 191.191 C 245.650 198.693,241.600 204.989,241.600 205.182 C 241.600 205.375,241.463 205.593,241.296 205.667 C 241.129 205.740,240.371 206.835,239.612 208.100 C 238.852 209.365,238.089 210.400,237.915 210.400 C 237.742 210.400,237.600 210.584,237.600 210.809 C 237.600 211.616,222.127 234.642,220.976 235.547 C 215.500 239.855,207.157 237.293,204.941 230.623 C 204.243 228.521,204.397 220.332,205.625 194.241 C 205.831 189.864,206.000 185.679,206.000 184.941 L 206.000 183.600 187.500 183.596 L 169.000 183.592 166.985 182.654 C 161.391 180.049,159.561 174.731,162.011 168.200 C 163.458 164.342,166.033 155.577,165.821 155.233 C 165.673 154.995,164.756 154.800,163.782 154.800 C 162.808 154.800,161.244 154.627,160.306 154.416 C 159.368 154.205,157.520 153.816,156.200 153.550 C 154.880 153.285,153.530 152.941,153.200 152.787 C 151.524 152.001,149.527 151.937,149.722 152.675 " stroke="none" fill="#fbb515" fill-rule="evenodd"></path><path id="SvgjsPath1001" d="M99.993 75.500 L 99.987 126.200 99.085 127.792 C 96.655 132.083,90.807 132.197,88.447 127.998 L 87.600 126.491 87.600 76.669 C 87.600 43.789,87.464 26.763,87.199 26.599 C 86.511 26.174,82.772 28.497,80.473 30.778 C 77.548 33.680,75.698 37.646,75.184 42.116 C 74.771 45.703,74.641 328.765,75.051 330.295 C 75.289 331.182,75.300 331.183,76.345 330.441 C 78.583 328.852,81.385 327.501,84.431 326.543 L 87.600 325.545 87.600 249.527 L 87.600 173.509 88.447 172.002 C 90.807 167.803,96.655 167.917,99.085 172.208 L 99.987 173.800 99.993 249.500 L 100.000 325.200 204.300 325.195 C 291.619 325.191,308.937 325.101,310.670 324.639 C 317.630 322.786,322.786 317.630,324.639 310.670 C 325.370 307.924,325.482 43.381,324.754 39.920 C 323.284 32.936,317.710 27.235,310.520 25.362 C 308.692 24.886,292.385 24.800,204.180 24.800 L 100.000 24.800 99.993 75.500 M310.000 25.755 C 310.770 25.920,311.760 26.207,312.200 26.394 C 312.640 26.580,313.585 26.972,314.300 27.264 C 315.015 27.556,315.600 27.931,315.600 28.098 C 315.600 28.264,315.825 28.403,316.100 28.408 C 316.680 28.416,321.160 32.968,321.900 34.300 C 323.254 36.738,323.863 38.217,324.246 40.000 C 324.639 41.830,324.639 308.170,324.246 310.000 C 324.081 310.770,323.793 311.760,323.606 312.200 C 323.420 312.640,323.028 313.585,322.736 314.300 C 322.444 315.015,322.069 315.600,321.902 315.600 C 321.736 315.600,321.600 315.778,321.600 315.995 C 321.600 317.208,316.909 321.551,314.400 322.662 C 311.899 323.769,311.421 323.941,310.000 324.245 C 309.230 324.409,261.755 324.602,204.500 324.674 L 100.400 324.805 100.400 249.251 C 100.400 167.617,100.517 172.099,98.335 170.176 C 97.212 169.187,95.456 168.400,94.370 168.400 C 93.134 168.400,93.360 156.676,94.600 156.489 C 97.271 156.087,98.135 155.512,99.544 153.200 C 101.827 149.453,98.938 143.600,94.806 143.600 L 93.600 143.600 93.600 137.600 L 93.600 131.600 94.605 131.600 C 96.378 131.600,98.820 129.845,99.810 127.859 C 100.321 126.836,100.400 119.843,100.400 75.937 L 100.400 25.197 204.500 25.326 C 261.755 25.397,309.230 25.590,310.000 25.755 M272.200 37.948 C 269.528 39.608,269.390 39.909,265.028 53.600 C 264.011 56.790,263.004 59.713,262.790 60.095 C 260.709 63.802,264.432 69.574,268.916 69.593 C 271.626 69.605,275.200 67.028,275.200 65.062 C 275.200 64.724,275.380 64.336,275.600 64.200 C 275.820 64.064,276.000 63.524,276.000 63.000 C 276.000 62.476,276.180 61.936,276.400 61.800 C 276.620 61.664,276.800 61.124,276.800 60.600 C 276.800 60.076,276.980 59.536,277.200 59.400 C 277.420 59.264,277.600 58.724,277.600 58.200 C 277.600 57.676,277.780 57.136,278.000 57.000 C 278.220 56.864,278.400 56.324,278.400 55.800 C 278.400 55.276,278.580 54.736,278.800 54.600 C 279.020 54.464,279.200 53.924,279.200 53.400 C 279.200 52.876,279.380 52.336,279.600 52.200 C 279.820 52.064,280.000 51.549,280.000 51.056 C 280.000 50.563,280.149 49.989,280.330 49.780 C 285.314 44.049,278.453 34.065,272.200 37.948 M277.727 38.195 C 282.147 40.042,282.120 45.220,277.635 56.200 C 277.455 56.640,276.718 58.800,275.996 61.000 C 274.296 66.185,273.825 67.075,272.281 68.016 C 268.419 70.371,262.856 67.414,262.809 62.981 C 262.792 61.436,269.645 41.424,270.637 40.119 C 272.443 37.745,274.993 37.053,277.727 38.195 M148.600 44.000 C 148.464 44.220,148.039 44.400,147.655 44.400 C 146.080 44.400,143.600 48.052,143.600 50.370 C 143.600 52.553,156.313 78.395,158.295 80.241 C 160.388 82.190,162.278 82.584,164.874 81.613 C 168.022 80.435,169.478 78.015,169.216 74.400 C 169.115 73.014,156.095 46.931,154.914 45.751 C 153.185 44.022,149.259 42.933,148.600 44.000 M152.513 44.948 C 154.636 45.853,155.253 46.859,162.161 60.692 C 169.130 74.644,169.454 75.574,168.200 77.999 C 166.507 81.274,161.398 82.429,158.909 80.100 C 157.723 78.991,144.790 53.739,144.240 51.460 C 143.196 47.134,148.270 43.140,152.513 44.948 M299.307 70.174 C 296.617 71.097,294.292 71.975,294.141 72.126 C 293.990 72.277,293.457 72.400,292.957 72.400 C 292.457 72.400,291.936 72.580,291.800 72.800 C 291.664 73.020,291.124 73.200,290.600 73.200 C 290.076 73.200,289.536 73.380,289.400 73.600 C 289.264 73.820,288.724 74.000,288.200 74.000 C 287.676 74.000,287.136 74.180,287.000 74.400 C 286.864 74.620,286.309 74.800,285.766 74.800 C 284.205 74.800,281.195 78.035,281.218 79.689 L 281.235 81.000 281.780 79.474 C 282.798 76.617,283.644 76.065,290.200 73.974 C 292.400 73.272,294.560 72.549,295.000 72.368 C 301.643 69.628,306.494 68.545,308.451 69.365 C 313.528 71.492,313.622 78.315,308.606 80.602 C 307.423 81.141,290.172 86.927,288.600 87.311 C 287.948 87.471,287.988 87.516,288.817 87.554 C 290.066 87.611,307.641 81.846,309.653 80.719 C 312.671 79.029,313.802 74.405,311.890 71.569 C 309.425 67.910,306.768 67.615,299.307 70.174 M116.500 74.681 C 115.785 74.774,115.200 75.019,115.200 75.225 C 115.200 75.431,114.996 75.600,114.747 75.600 C 111.259 75.600,110.947 83.990,114.347 86.340 C 115.669 87.254,141.063 99.830,142.342 100.205 C 145.794 101.215,149.801 97.709,149.798 93.681 C 149.795 89.304,149.880 89.371,134.331 81.607 C 121.127 75.013,119.325 74.313,116.500 74.681 M133.449 81.789 C 148.628 89.395,149.200 89.823,149.200 93.576 C 149.200 97.364,146.122 100.048,142.457 99.455 C 139.606 98.994,114.419 85.972,113.351 84.407 C 110.716 80.547,113.555 75.215,118.249 75.204 C 120.104 75.200,121.548 75.826,133.449 81.789 M194.800 78.346 C 192.541 79.506,189.606 82.741,189.602 84.076 C 189.601 84.448,189.420 84.864,189.200 85.000 C 188.980 85.136,188.800 85.676,188.800 86.200 C 188.800 86.724,188.620 87.264,188.400 87.400 C 188.180 87.536,188.000 88.076,188.000 88.600 C 188.000 89.124,187.820 89.664,187.600 89.800 C 187.380 89.936,187.200 90.476,187.200 91.000 C 187.200 91.524,187.020 92.064,186.800 92.200 C 186.580 92.336,186.400 92.799,186.400 93.229 C 186.400 93.659,186.239 94.323,186.042 94.705 C 185.844 95.087,184.654 98.640,183.397 102.600 C 182.139 106.560,180.959 110.160,180.775 110.600 C 180.592 111.040,180.051 112.660,179.574 114.200 C 179.098 115.740,178.549 117.313,178.354 117.695 C 178.159 118.077,178.000 118.741,178.000 119.171 C 178.000 119.601,177.820 120.064,177.600 120.200 C 177.380 120.336,177.200 120.876,177.200 121.400 C 177.200 121.924,177.020 122.464,176.800 122.600 C 176.580 122.736,176.400 123.276,176.400 123.800 C 176.400 124.324,176.220 124.864,176.000 125.000 C 175.780 125.136,175.600 125.676,175.600 126.200 C 175.600 126.724,175.420 127.264,175.200 127.400 C 174.980 127.536,174.800 128.076,174.800 128.600 C 174.800 129.124,174.620 129.664,174.400 129.800 C 174.180 129.936,174.000 130.399,174.000 130.829 C 174.000 131.259,173.838 131.923,173.641 132.305 C 173.444 132.687,172.870 134.350,172.367 136.000 C 171.863 137.650,171.322 139.180,171.164 139.400 C 171.006 139.620,170.814 140.250,170.738 140.800 C 170.489 142.602,162.810 142.044,154.200 139.599 C 153.320 139.349,152.192 139.045,151.694 138.924 C 151.196 138.803,150.690 138.546,150.570 138.352 C 150.451 138.159,150.099 138.000,149.788 138.000 C 149.478 138.000,148.273 137.570,147.112 137.045 C 140.138 133.891,140.255 133.924,138.126 134.460 C 135.852 135.033,133.783 137.033,133.191 139.232 C 132.756 140.849,132.876 141.858,133.952 145.600 C 135.019 149.315,136.108 153.127,136.436 154.300 C 136.636 155.015,136.994 156.275,137.230 157.100 C 138.876 162.839,140.124 171.161,140.124 176.400 C 140.125 180.488,139.620 185.140,139.144 185.434 C 138.955 185.551,138.800 186.166,138.800 186.800 C 138.800 187.434,138.620 188.064,138.400 188.200 C 138.180 188.336,137.997 188.752,137.993 189.124 C 137.957 192.341,130.063 203.145,123.766 208.594 C 122.245 209.911,120.910 211.086,120.800 211.205 C 120.690 211.325,119.250 212.433,117.600 213.667 C 111.287 218.391,110.198 222.183,114.047 226.043 C 115.881 227.882,116.404 227.979,126.800 228.412 C 131.530 228.608,136.750 228.952,138.400 229.175 C 140.050 229.399,142.300 229.693,143.400 229.830 C 144.500 229.966,145.571 230.240,145.780 230.439 C 145.989 230.637,146.576 230.800,147.085 230.800 C 147.594 230.800,148.323 230.965,148.705 231.166 C 149.087 231.368,150.039 231.809,150.821 232.148 C 154.729 233.839,155.120 236.698,152.414 243.800 C 151.784 245.455,147.950 253.078,146.781 255.000 C 146.112 256.100,145.462 257.315,145.336 257.700 C 145.210 258.085,144.948 258.400,144.753 258.400 C 144.559 258.400,144.400 258.760,144.400 259.200 C 144.400 259.640,144.220 260.000,144.000 260.000 C 143.383 260.000,143.527 264.130,144.190 265.459 C 146.380 269.849,150.715 270.125,159.400 266.428 C 161.525 265.523,167.819 263.752,172.400 262.770 C 179.791 261.186,188.543 261.021,192.800 262.387 C 193.350 262.563,194.610 262.945,195.600 263.236 C 199.446 264.365,206.962 268.663,209.972 271.455 C 210.533 271.975,211.147 272.400,211.337 272.400 C 211.784 272.400,224.921 285.612,228.737 289.900 C 230.353 291.715,231.927 293.200,232.237 293.200 C 232.547 293.200,232.800 293.380,232.800 293.600 C 232.800 293.825,233.915 294.000,235.344 294.000 C 240.222 294.000,242.861 290.250,242.105 284.392 C 241.903 282.821,241.875 280.695,242.044 279.668 C 242.214 278.640,242.363 276.596,242.376 275.124 C 242.389 273.652,242.580 272.336,242.800 272.200 C 243.020 272.064,243.200 271.254,243.200 270.400 C 243.200 269.546,243.380 268.736,243.600 268.600 C 243.820 268.464,244.000 267.924,244.000 267.400 C 244.000 266.876,244.180 266.336,244.400 266.200 C 244.620 266.064,244.800 265.619,244.800 265.210 C 244.800 261.304,255.905 248.000,259.165 248.000 C 259.404 248.000,259.600 247.820,259.600 247.600 C 259.600 247.380,259.960 247.200,260.400 247.200 C 260.840 247.200,261.200 247.020,261.200 246.800 C 261.200 246.580,261.472 246.400,261.805 246.400 C 262.138 246.400,262.723 246.241,263.105 246.047 C 263.487 245.852,264.295 245.492,264.900 245.247 C 265.505 245.001,266.405 244.634,266.900 244.430 C 268.736 243.676,273.515 242.814,278.200 242.392 C 282.689 241.988,295.909 242.329,296.236 242.858 C 296.730 243.658,302.757 243.235,304.185 242.300 C 307.009 240.449,307.979 236.612,306.355 233.720 C 305.453 232.114,304.667 231.345,301.207 228.686 C 298.882 226.899,298.485 226.537,293.004 221.200 C 280.948 209.462,281.345 203.457,294.800 194.005 C 295.570 193.464,296.549 192.702,296.975 192.311 C 297.402 191.920,297.987 191.600,298.275 191.600 C 298.564 191.600,298.800 191.420,298.800 191.200 C 298.800 190.980,299.055 190.800,299.367 190.800 C 299.678 190.800,299.993 190.659,300.067 190.486 C 300.140 190.314,302.450 188.849,305.200 187.231 C 311.764 183.371,312.800 182.248,312.800 179.000 C 312.800 175.541,310.522 173.050,306.600 172.219 C 305.940 172.079,304.680 171.782,303.800 171.560 C 302.169 171.148,299.951 170.642,297.800 170.191 C 297.140 170.053,296.240 169.795,295.800 169.619 C 295.360 169.442,294.010 169.068,292.800 168.787 C 291.590 168.506,287.090 167.205,282.800 165.895 C 278.510 164.586,274.592 163.422,274.094 163.310 C 273.596 163.197,273.090 162.946,272.970 162.752 C 272.851 162.559,272.324 162.400,271.800 162.400 C 270.312 162.400,270.257 161.753,271.578 159.831 C 272.250 158.855,272.800 157.863,272.800 157.628 C 272.800 157.393,272.950 157.200,273.133 157.200 C 274.803 157.200,276.789 148.741,275.647 146.495 C 275.452 146.113,275.075 145.329,274.808 144.754 C 274.022 143.061,271.983 141.114,269.828 140.000 C 268.840 139.490,266.333 139.420,253.075 139.531 L 237.483 139.663 238.679 138.131 C 239.663 136.872,243.819 130.901,245.400 128.477 C 245.620 128.139,246.022 127.579,246.294 127.232 C 246.566 126.884,248.935 123.450,251.560 119.600 C 254.185 115.750,256.492 112.420,256.689 112.200 C 256.885 111.979,258.190 110.089,259.589 108.000 C 260.988 105.910,262.246 104.110,262.386 104.000 C 262.919 103.578,269.545 93.676,270.352 92.095 C 272.895 87.110,270.645 80.884,265.342 78.230 L 263.284 77.200 230.142 77.209 L 197.000 77.217 194.800 78.346 M263.375 78.173 C 267.554 79.430,270.199 82.388,270.665 86.322 C 271.138 90.309,270.809 90.922,259.452 107.200 C 252.081 117.765,246.632 125.638,246.200 126.345 C 245.980 126.705,245.699 127.090,245.576 127.200 C 245.148 127.583,237.565 138.826,237.341 139.411 C 237.144 139.924,239.151 140.000,252.838 140.000 L 268.561 140.000 270.595 141.233 C 276.602 144.873,277.067 149.943,272.113 157.769 C 270.731 159.952,269.600 161.868,269.600 162.026 C 269.600 162.450,285.453 167.621,290.400 168.810 C 291.170 168.995,292.430 169.324,293.200 169.542 C 295.243 170.118,299.316 171.134,303.200 172.036 C 309.643 173.533,310.738 174.131,311.835 176.749 C 313.448 180.599,312.118 182.424,304.302 187.079 C 277.358 203.129,277.086 209.193,302.361 230.446 C 309.860 236.752,306.672 244.560,297.477 242.407 C 294.339 241.673,285.132 241.270,279.800 241.634 C 271.768 242.182,267.853 243.144,260.900 246.276 C 253.446 249.634,245.532 258.888,243.577 266.530 C 241.734 273.739,241.467 275.865,241.429 283.670 C 241.397 290.185,241.189 290.804,238.404 292.700 C 235.094 294.953,233.091 293.965,226.680 286.914 C 208.740 267.184,198.299 260.800,183.967 260.800 C 178.481 260.800,173.005 261.733,164.800 264.068 C 164.030 264.287,162.903 264.562,162.295 264.679 C 161.687 264.796,161.092 265.051,160.971 265.246 C 160.851 265.441,160.349 265.600,159.856 265.600 C 159.363 265.600,158.789 265.746,158.580 265.925 C 157.663 266.710,150.110 268.914,149.157 268.675 C 143.787 267.327,142.821 263.022,146.482 256.754 C 150.669 249.588,152.558 245.553,154.343 239.972 C 156.973 231.748,150.082 228.776,125.600 227.572 C 115.054 227.054,114.490 226.883,113.011 223.767 C 111.583 220.757,112.607 218.266,116.499 215.285 C 131.233 203.997,137.739 195.271,140.193 183.505 C 141.794 175.834,140.202 163.881,135.600 149.000 C 135.124 147.460,134.547 145.570,134.318 144.800 C 131.985 136.957,136.736 132.907,144.200 136.377 C 145.740 137.093,147.405 137.841,147.900 138.039 C 148.395 138.238,149.205 138.562,149.700 138.760 C 154.348 140.617,161.454 142.182,167.230 142.622 L 170.660 142.883 171.296 141.141 C 171.646 140.184,172.153 138.680,172.422 137.800 C 172.691 136.920,173.056 135.840,173.234 135.400 C 173.412 134.960,174.937 130.370,176.624 125.200 C 178.310 120.030,180.904 112.110,182.387 107.600 C 183.871 103.090,185.477 98.140,185.956 96.600 C 186.435 95.060,186.980 93.440,187.166 93.000 C 187.352 92.560,188.101 90.310,188.831 88.000 C 190.827 81.684,193.067 78.985,197.103 78.033 C 199.863 77.383,261.178 77.511,263.375 78.173 M281.232 82.953 C 281.187 84.585,284.225 87.617,285.847 87.559 L 287.000 87.518 285.731 87.110 C 284.198 86.617,282.252 84.642,281.681 83.000 L 281.263 81.800 281.232 82.953 M200.984 90.027 C 200.839 90.261,200.828 90.561,200.960 90.693 C 201.092 90.825,201.200 90.723,201.200 90.467 C 201.200 90.116,207.943 90.000,228.400 90.000 C 243.360 90.000,255.600 90.114,255.600 90.253 C 255.600 90.392,254.370 92.237,252.866 94.353 C 251.362 96.469,248.997 99.910,247.611 102.000 C 246.225 104.090,244.725 106.204,244.277 106.698 C 243.830 107.193,243.564 107.698,243.688 107.821 C 243.811 107.944,245.957 105.055,248.456 101.401 C 250.955 97.747,253.756 93.737,254.681 92.490 C 255.867 90.890,256.220 90.133,255.881 89.918 C 255.097 89.420,201.293 89.526,200.984 90.027 M200.200 92.000 C 200.050 92.473,200.017 92.950,200.127 93.060 C 200.237 93.170,200.450 92.873,200.600 92.400 C 200.750 91.927,200.783 91.450,200.673 91.340 C 200.563 91.230,200.350 91.527,200.200 92.000 M199.029 95.629 C 198.658 96.761,198.437 97.770,198.537 97.870 C 198.637 97.970,199.025 97.129,199.400 96.000 C 199.775 94.871,199.996 93.863,199.892 93.759 C 199.788 93.654,199.399 94.496,199.029 95.629 M197.076 101.515 C 196.484 103.306,196.014 105.003,196.030 105.286 C 196.047 105.569,196.588 104.274,197.233 102.409 C 197.878 100.544,198.349 98.847,198.279 98.638 C 198.210 98.429,197.668 99.724,197.076 101.515 M195.467 106.267 C 195.320 106.413,195.200 106.917,195.200 107.387 C 195.200 107.856,195.051 108.411,194.870 108.620 C 194.688 108.829,194.299 109.810,194.007 110.800 C 193.714 111.790,192.505 115.548,191.321 119.151 C 190.137 122.754,189.239 125.772,189.324 125.857 C 189.410 125.943,190.952 121.575,192.752 116.152 C 195.780 107.025,196.185 105.548,195.467 106.267 M239.200 114.060 C 237.110 117.152,234.846 120.428,234.170 121.341 C 233.493 122.253,231.423 125.221,229.570 127.935 C 227.716 130.649,225.431 133.979,224.492 135.335 C 220.711 140.792,221.369 146.999,226.091 150.420 C 228.807 152.387,229.504 152.456,245.300 152.324 C 261.903 152.184,260.879 151.935,258.470 155.522 C 256.464 158.507,256.197 158.973,256.648 158.694 C 257.170 158.371,260.800 152.587,260.800 152.078 C 260.800 151.790,256.151 151.729,245.900 151.882 C 229.045 152.133,228.529 152.073,225.754 149.515 C 223.307 147.260,222.600 145.610,222.600 142.161 C 222.600 139.242,222.925 138.267,224.800 135.553 C 225.350 134.757,228.037 130.887,230.770 126.953 C 239.632 114.200,243.543 108.400,243.269 108.419 C 243.121 108.430,241.290 110.969,239.200 114.060 M186.243 134.643 C 185.631 136.524,185.212 138.146,185.313 138.246 C 185.414 138.347,185.997 136.890,186.609 135.009 C 187.221 133.127,187.639 131.506,187.539 131.406 C 187.439 131.306,186.856 132.763,186.243 134.643 M184.600 139.600 C 184.450 140.073,184.417 140.550,184.527 140.660 C 184.637 140.770,184.850 140.473,185.000 140.000 C 185.150 139.527,185.183 139.050,185.073 138.940 C 184.963 138.830,184.750 139.127,184.600 139.600 M183.800 142.000 C 183.650 142.473,183.617 142.950,183.727 143.060 C 183.837 143.170,184.050 142.873,184.200 142.400 C 184.350 141.927,184.383 141.450,184.273 141.340 C 184.163 141.230,183.950 141.527,183.800 142.000 M96.609 144.701 C 97.868 145.379,99.061 146.878,99.633 148.500 C 101.247 153.085,95.293 157.910,91.012 155.487 C 83.803 151.406,89.320 140.775,96.609 144.701 M183.000 144.400 C 182.850 144.873,182.817 145.350,182.927 145.460 C 183.037 145.570,183.250 145.273,183.400 144.800 C 183.550 144.327,183.583 143.850,183.473 143.740 C 183.363 143.630,183.150 143.927,183.000 144.400 M182.200 146.800 C 182.050 147.273,182.017 147.750,182.127 147.860 C 182.237 147.970,182.450 147.673,182.600 147.200 C 182.750 146.727,182.783 146.250,182.673 146.140 C 182.563 146.030,182.350 146.327,182.200 146.800 M181.400 149.200 C 181.250 149.673,181.217 150.150,181.327 150.260 C 181.437 150.370,181.650 150.073,181.800 149.600 C 181.950 149.127,181.983 148.650,181.873 148.540 C 181.763 148.430,181.550 148.727,181.400 149.200 M178.995 156.595 C 177.938 159.792,177.165 162.498,177.276 162.609 C 177.387 162.720,178.331 160.185,179.374 156.974 C 180.417 153.764,181.191 151.058,181.093 150.960 C 180.996 150.862,180.051 153.398,178.995 156.595 M149.228 152.300 C 149.244 152.685,149.427 153.360,149.636 153.800 C 149.934 154.429,149.972 154.319,149.814 153.283 L 149.613 151.966 151.107 152.187 C 152.220 152.352,152.396 152.313,151.800 152.032 C 150.439 151.392,149.197 151.522,149.228 152.300 M152.839 152.550 C 153.217 152.964,157.684 154.045,158.376 153.889 C 158.719 153.812,158.013 153.529,156.807 153.259 C 155.601 152.989,154.161 152.660,153.607 152.528 C 153.053 152.396,152.708 152.406,152.839 152.550 M160.600 154.384 C 161.353 154.723,165.525 154.969,165.167 154.653 C 165.075 154.572,163.830 154.398,162.400 154.265 C 160.724 154.109,160.084 154.152,160.600 154.384 M150.056 155.600 C 150.056 156.150,150.211 156.960,150.400 157.400 C 150.713 158.129,150.744 158.112,150.744 157.200 C 150.744 156.650,150.589 155.840,150.400 155.400 C 150.087 154.671,150.056 154.688,150.056 155.600 M165.832 155.338 C 165.945 155.634,165.220 158.327,164.219 161.321 C 163.219 164.316,162.414 166.999,162.431 167.283 C 162.474 168.016,166.400 156.372,166.400 155.510 C 166.400 155.120,166.226 154.800,166.013 154.800 C 165.799 154.800,165.718 155.042,165.832 155.338 M150.856 159.200 C 150.856 159.750,151.011 160.560,151.200 161.000 C 151.513 161.729,151.544 161.712,151.544 160.800 C 151.544 160.250,151.389 159.440,151.200 159.000 C 150.887 158.271,150.856 158.288,150.856 159.200 M250.645 167.397 C 247.650 171.929,245.200 175.780,245.200 175.956 C 245.200 176.132,244.840 176.602,244.400 177.000 C 243.960 177.398,243.600 177.881,243.600 178.073 C 243.600 178.264,242.009 180.801,240.064 183.711 C 235.681 190.268,234.335 192.400,234.581 192.400 C 234.686 192.400,235.743 190.915,236.928 189.100 C 239.228 185.579,251.220 167.365,254.475 162.448 C 255.550 160.825,256.353 159.420,256.260 159.327 C 256.167 159.234,253.640 162.865,250.645 167.397 M151.663 162.800 C 151.654 163.350,151.795 164.520,151.977 165.400 L 152.308 167.000 152.314 165.400 C 152.317 164.520,152.176 163.350,152.000 162.800 L 151.680 161.800 151.663 162.800 M175.682 166.875 C 175.014 168.917,174.554 170.725,174.658 170.894 C 174.762 171.062,183.072 171.157,193.124 171.104 L 211.400 171.008 193.300 170.900 C 177.197 170.804,175.200 170.723,175.200 170.166 C 175.200 169.822,175.657 168.181,176.215 166.518 C 176.773 164.856,177.154 163.421,177.062 163.329 C 176.970 163.237,176.349 164.832,175.682 166.875 M152.600 176.199 C 152.600 180.955,152.717 184.430,152.860 183.923 C 153.003 183.415,153.120 179.940,153.120 176.200 C 153.120 172.460,153.003 168.984,152.860 168.476 C 152.717 167.968,152.600 171.443,152.600 176.199 M161.866 168.443 C 161.782 168.749,161.508 169.643,161.256 170.428 C 159.758 175.116,162.259 180.453,166.985 182.654 L 169.000 183.592 187.500 183.596 L 206.000 183.600 206.000 184.941 C 206.000 185.679,205.831 189.864,205.625 194.241 C 204.397 220.332,204.243 228.521,204.941 230.623 C 207.157 237.293,215.500 239.855,220.976 235.547 C 222.136 234.635,237.819 211.286,237.492 210.958 C 237.337 210.803,235.077 214.177,226.008 228.102 C 220.944 235.878,218.636 237.544,213.561 237.088 C 207.267 236.523,204.517 232.119,204.932 223.270 C 205.568 209.740,206.174 192.890,206.186 188.400 L 206.200 183.400 187.200 183.200 L 168.200 183.000 166.283 181.873 C 162.305 179.535,160.510 175.140,161.708 170.671 C 162.068 169.328,162.285 168.152,162.190 168.057 C 162.096 167.963,161.950 168.136,161.866 168.443 M211.600 171.354 C 211.600 171.469,212.405 171.919,213.389 172.354 C 214.565 172.874,215.618 173.770,216.462 174.967 C 217.168 175.968,217.828 176.706,217.929 176.605 C 218.224 176.309,216.087 173.706,214.688 172.658 C 213.427 171.713,211.600 170.942,211.600 171.354 M255.773 182.500 C 252.139 188.055,246.742 196.290,243.780 200.800 C 237.467 210.412,237.474 210.400,237.901 210.400 C 238.083 210.400,238.852 209.365,239.612 208.100 C 240.371 206.835,241.129 205.740,241.296 205.667 C 241.463 205.593,241.600 205.375,241.600 205.182 C 241.600 204.989,245.650 198.693,250.600 191.191 C 255.550 183.690,259.600 177.383,259.600 177.176 C 259.600 176.969,259.736 176.800,259.902 176.800 C 260.069 176.800,260.435 176.279,260.717 175.643 C 260.999 175.006,261.664 174.016,262.196 173.443 C 262.727 172.869,262.986 172.400,262.771 172.400 C 262.556 172.400,259.407 176.945,255.773 182.500 M263.732 173.065 C 263.995 173.328,266.525 174.288,270.000 175.442 C 270.990 175.771,272.160 176.190,272.600 176.372 C 273.694 176.826,280.737 179.003,284.400 180.019 C 286.050 180.477,287.715 180.942,288.100 181.053 C 289.243 181.381,288.946 181.783,285.900 184.026 C 268.828 196.601,266.547 212.462,279.776 226.600 L 281.647 228.600 277.801 228.856 C 275.686 228.997,273.831 229.236,273.679 229.387 C 273.393 229.673,280.965 229.278,281.972 228.954 C 282.372 228.825,281.943 228.146,280.539 226.685 C 276.886 222.885,274.452 218.922,273.237 214.800 C 272.946 213.810,272.510 212.465,272.269 211.812 C 271.486 209.691,271.767 202.500,272.730 200.040 C 274.783 194.792,279.712 189.063,286.340 184.217 C 290.481 181.191,290.483 181.211,286.000 179.995 C 285.010 179.727,283.750 179.370,283.200 179.202 C 282.650 179.034,280.850 178.490,279.200 177.993 C 274.920 176.703,271.528 175.603,270.600 175.202 C 267.957 174.062,263.270 172.603,263.732 173.065 M218.046 177.600 C 218.065 177.930,218.224 178.650,218.400 179.200 L 218.720 180.200 218.754 179.200 C 218.773 178.650,218.613 177.930,218.400 177.600 C 218.055 177.067,218.016 177.067,218.046 177.600 M218.254 190.400 C 218.073 194.250,217.991 198.120,218.072 199.000 C 218.152 199.880,218.366 197.450,218.546 193.600 C 218.727 189.750,218.809 185.880,218.728 185.000 C 218.648 184.120,218.434 186.550,218.254 190.400 M151.683 187.616 C 151.430 188.817,151.115 190.250,150.984 190.800 C 150.812 191.518,150.851 191.631,151.121 191.200 C 151.645 190.364,152.509 186.528,152.309 185.928 C 152.218 185.655,151.937 186.415,151.683 187.616 M150.200 192.800 C 150.050 193.273,150.017 193.750,150.127 193.860 C 150.237 193.970,150.450 193.673,150.600 193.200 C 150.750 192.727,150.783 192.250,150.673 192.140 C 150.563 192.030,150.350 192.327,150.200 192.800 M229.339 200.026 C 226.733 204.000,223.283 209.265,221.674 211.726 C 217.380 218.290,217.659 218.375,217.805 210.546 C 217.913 204.766,217.885 204.373,217.612 207.800 C 217.133 213.820,217.135 218.000,217.618 218.000 C 217.848 218.000,221.020 213.455,224.667 207.900 C 234.147 193.464,234.568 192.800,234.263 192.800 C 234.162 192.800,231.946 196.052,229.339 200.026 M149.374 195.043 C 148.029 199.200,142.940 206.991,138.129 212.257 C 134.873 215.821,134.880 215.925,138.418 216.184 C 140.235 216.317,140.644 216.272,139.800 216.034 C 139.140 215.847,138.000 215.673,137.267 215.647 C 135.606 215.588,135.678 215.395,138.440 212.527 C 139.671 211.247,141.606 208.940,142.740 207.400 C 143.873 205.860,145.068 204.251,145.395 203.825 C 146.484 202.406,150.156 194.823,149.885 194.552 C 149.739 194.405,149.509 194.626,149.374 195.043 M142.200 216.800 C 142.860 216.968,144.030 217.105,144.800 217.105 L 146.200 217.105 145.000 216.800 C 144.340 216.632,143.170 216.495,142.400 216.495 L 141.000 216.495 142.200 216.800 M147.000 217.600 C 147.440 217.789,148.160 217.944,148.600 217.944 L 149.400 217.944 148.600 217.600 C 148.160 217.411,147.440 217.256,147.000 217.256 L 146.200 217.256 147.000 217.600 M150.200 218.400 C 151.396 218.914,152.395 218.914,151.600 218.400 C 151.270 218.187,150.640 218.022,150.200 218.034 L 149.400 218.056 150.200 218.400 M153.200 219.298 C 160.258 222.434,163.145 224.864,165.307 229.487 C 167.255 233.652,167.148 239.976,165.028 246.000 C 162.980 251.817,163.033 251.600,163.653 251.601 C 164.750 251.603,169.745 250.248,169.249 250.083 C 168.969 249.990,167.898 250.132,166.870 250.399 C 165.841 250.667,164.710 250.961,164.355 251.052 C 163.837 251.186,164.027 250.292,165.318 246.509 C 169.698 233.678,166.329 224.617,155.377 219.773 C 154.167 219.238,152.957 218.812,152.689 218.827 C 152.420 218.842,152.650 219.054,153.200 219.298 M269.600 230.023 C 269.174 230.314,269.580 230.355,271.000 230.165 C 272.100 230.018,273.075 229.831,273.167 229.749 C 273.568 229.390,270.139 229.654,269.600 230.023 M266.400 230.800 C 265.636 231.294,266.458 231.294,268.000 230.800 L 269.000 230.480 268.000 230.446 C 267.450 230.427,266.730 230.587,266.400 230.800 M263.000 231.784 C 262.340 232.053,261.206 232.502,260.480 232.783 C 259.753 233.063,259.227 233.360,259.310 233.443 C 259.393 233.526,260.887 233.064,262.630 232.417 C 264.374 231.769,265.440 231.252,265.000 231.267 C 264.560 231.283,263.660 231.515,263.000 231.784 M255.000 235.312 C 247.158 239.449,241.826 244.141,237.368 250.825 C 234.896 254.532,232.000 260.180,232.000 261.294 C 232.000 261.594,231.803 262.037,231.562 262.278 C 231.322 262.518,231.196 263.049,231.282 263.458 C 231.381 263.925,231.711 263.386,232.173 262.000 C 235.860 250.942,244.424 241.135,255.100 235.746 C 257.135 234.719,258.800 233.816,258.800 233.739 C 258.800 233.399,257.993 233.733,255.000 235.312 M176.222 248.747 C 175.573 248.886,178.852 249.000,183.506 249.000 C 188.161 249.000,191.661 248.878,191.285 248.728 C 190.429 248.388,177.821 248.404,176.222 248.747 M171.000 249.600 C 169.936 250.057,171.603 250.057,173.400 249.600 L 174.600 249.295 173.200 249.275 C 172.430 249.265,171.440 249.411,171.000 249.600 M193.600 249.600 C 195.130 250.090,196.358 250.090,195.600 249.600 C 195.270 249.387,194.460 249.227,193.800 249.246 C 192.624 249.279,192.620 249.286,193.600 249.600 M199.600 251.218 C 208.610 254.328,216.217 259.455,226.991 269.678 C 228.540 271.148,229.482 271.787,229.645 271.478 C 230.084 270.650,231.279 264.746,231.054 264.521 C 230.936 264.402,230.732 264.822,230.601 265.453 C 230.471 266.084,230.192 267.251,229.982 268.046 C 229.772 268.842,229.600 269.886,229.600 270.366 C 229.600 271.549,229.290 271.333,224.325 266.682 C 215.331 258.257,201.532 249.876,196.896 250.022 C 196.513 250.034,197.730 250.572,199.600 251.218 M287.989 266.437 C 282.812 269.440,283.604 275.893,289.540 279.077 C 290.343 279.508,293.746 281.521,297.103 283.551 C 304.840 288.229,306.137 288.737,308.468 288.006 C 310.433 287.390,312.800 285.389,312.800 284.345 C 312.800 283.961,312.980 283.536,313.200 283.400 C 315.538 281.955,311.256 275.447,307.100 274.129 C 306.715 274.007,306.400 273.748,306.400 273.553 C 306.400 273.359,306.207 273.200,305.972 273.200 C 305.737 273.200,304.759 272.660,303.800 272.000 C 302.841 271.340,301.979 270.800,301.885 270.800 C 301.791 270.800,299.766 269.630,297.385 268.200 C 292.486 265.258,290.624 264.908,287.989 266.437 M297.400 268.852 C 299.600 270.198,301.940 271.612,302.600 271.994 C 305.938 273.925,308.340 275.396,309.836 276.425 C 316.843 281.246,310.251 290.957,303.064 286.400 C 302.024 285.740,301.076 285.200,300.958 285.200 C 300.840 285.200,299.959 284.660,299.000 284.000 C 298.041 283.340,297.141 282.800,297.000 282.800 C 296.859 282.800,295.959 282.260,295.000 281.600 C 294.041 280.940,293.141 280.400,293.000 280.400 C 292.859 280.400,291.959 279.860,291.000 279.200 C 290.041 278.540,289.099 278.000,288.906 278.000 C 287.621 278.000,285.200 274.216,285.200 272.206 C 285.200 266.169,290.594 264.686,297.400 268.852 M129.800 275.200 C 129.664 275.420,129.291 275.600,128.971 275.600 C 128.179 275.600,125.611 277.297,125.605 277.825 C 125.602 278.058,125.240 278.636,124.800 279.108 C 124.360 279.580,124.000 280.154,124.000 280.383 C 124.000 280.612,123.820 280.800,123.600 280.800 C 123.380 280.800,123.200 281.055,123.200 281.367 C 123.200 281.678,123.046 281.993,122.858 282.067 C 122.186 282.328,112.566 297.430,112.042 299.045 C 110.808 302.850,114.335 307.200,118.654 307.200 C 121.667 307.200,122.677 306.130,129.991 295.195 C 138.315 282.750,138.457 282.425,137.042 279.040 C 136.027 276.609,130.681 273.774,129.800 275.200 M134.302 276.703 C 136.043 277.844,136.800 279.372,136.800 281.745 C 136.800 284.148,125.217 302.632,122.031 305.313 C 117.646 309.002,110.254 303.335,112.848 298.274 C 114.165 295.703,126.703 277.439,127.575 276.821 C 129.440 275.498,132.383 275.447,134.302 276.703 M152.800 282.100 C 151.085 283.270,150.000 285.360,150.000 287.490 C 150.000 289.027,153.798 301.517,154.806 303.295 C 155.023 303.677,155.200 304.341,155.200 304.771 C 155.200 305.201,155.380 305.664,155.600 305.800 C 155.820 305.936,156.000 306.391,156.000 306.811 C 156.000 307.532,157.208 310.013,158.085 311.092 C 160.723 314.339,167.306 312.917,168.978 308.739 C 169.912 306.405,169.838 306.016,166.590 296.146 C 163.535 286.864,163.331 286.290,162.359 284.250 C 161.674 282.811,159.338 281.190,158.007 281.230 C 157.030 281.260,157.035 281.275,158.200 281.730 C 161.629 283.072,161.400 282.657,165.561 295.083 C 169.825 307.820,169.769 309.805,165.081 311.900 C 161.560 313.474,156.400 310.085,156.400 306.199 C 156.400 305.864,156.224 305.277,156.009 304.895 C 155.577 304.128,151.047 290.461,150.635 288.685 C 150.005 285.962,152.037 282.614,154.872 281.707 C 156.105 281.312,156.126 281.279,155.159 281.241 C 154.587 281.218,153.525 281.605,152.800 282.100 M265.514 281.822 C 263.178 283.089,261.597 287.780,262.790 289.905 C 263.004 290.287,264.012 293.210,265.030 296.400 C 268.350 306.802,269.276 309.407,269.943 310.218 C 272.880 313.792,277.919 313.751,280.679 310.131 C 281.911 308.516,282.297 303.737,281.278 302.718 C 281.015 302.455,280.800 301.837,280.800 301.344 C 280.800 300.851,280.620 300.336,280.400 300.200 C 280.180 300.064,280.000 299.524,280.000 299.000 C 280.000 298.476,279.820 297.936,279.600 297.800 C 279.380 297.664,279.200 297.124,279.200 296.600 C 279.200 296.076,279.020 295.536,278.800 295.400 C 278.580 295.264,278.400 294.724,278.400 294.200 C 278.400 293.676,278.220 293.136,278.000 293.000 C 277.780 292.864,277.600 292.324,277.600 291.800 C 277.600 291.276,277.420 290.736,277.200 290.600 C 276.980 290.464,276.800 289.924,276.800 289.400 C 276.800 288.876,276.620 288.336,276.400 288.200 C 276.180 288.064,276.000 287.609,276.000 287.189 C 276.000 284.902,272.651 281.188,270.615 281.218 C 269.434 281.235,269.445 281.251,271.000 281.799 C 272.698 282.396,274.595 284.306,274.913 285.738 C 275.175 286.919,277.208 292.839,277.645 293.695 C 277.840 294.077,278.000 294.716,278.000 295.115 C 278.000 295.514,278.153 296.011,278.341 296.220 C 278.529 296.429,278.916 297.500,279.203 298.600 C 279.489 299.700,279.829 300.780,279.958 301.000 C 284.432 308.611,276.255 316.648,270.725 310.076 C 269.065 308.102,263.056 289.242,263.295 286.755 C 263.516 284.454,265.163 282.387,267.331 281.690 C 268.483 281.319,268.508 281.279,267.600 281.257 C 267.050 281.243,266.111 281.497,265.514 281.822 M324.971 340.800 C 324.971 345.750,325.028 347.775,325.099 345.300 C 325.169 342.825,325.169 338.775,325.099 336.300 C 325.028 333.825,324.971 335.850,324.971 340.800 M80.378 343.100 L 79.000 344.600 80.500 343.222 C 81.896 341.938,82.184 341.600,81.878 341.600 C 81.812 341.600,81.137 342.275,80.378 343.100 M74.920 356.400 C 74.920 357.610,74.995 358.105,75.087 357.500 C 75.178 356.895,75.178 355.905,75.087 355.300 C 74.995 354.695,74.920 355.190,74.920 356.400 M324.942 366.200 C 324.941 368.180,325.008 369.040,325.092 368.112 C 325.176 367.184,325.177 365.564,325.095 364.512 C 325.012 363.460,324.943 364.220,324.942 366.200 M148.932 375.100 C 180.355 375.157,231.655 375.156,262.932 375.100 C 294.210 375.043,268.500 374.997,205.800 374.997 C 143.100 374.997,117.510 375.043,148.932 375.100 " stroke="none" fill="#b4151c" fill-rule="evenodd"></path><path id="SvgjsPath1000" d="M100.400 75.937 C 100.400 119.843,100.321 126.836,99.810 127.859 C 98.820 129.845,96.378 131.600,94.605 131.600 L 93.600 131.600 93.600 137.600 L 93.600 143.600 94.806 143.600 C 98.938 143.600,101.827 149.453,99.544 153.200 C 98.135 155.512,97.271 156.087,94.600 156.489 C 93.360 156.676,93.134 168.400,94.370 168.400 C 95.456 168.400,97.212 169.187,98.335 170.176 C 100.517 172.099,100.400 167.617,100.400 249.251 L 100.400 324.805 204.500 324.674 C 261.755 324.602,309.230 324.409,310.000 324.245 C 311.421 323.941,311.899 323.769,314.400 322.662 C 316.909 321.551,321.600 317.208,321.600 315.995 C 321.600 315.778,321.736 315.600,321.902 315.600 C 322.069 315.600,322.444 315.015,322.736 314.300 C 323.028 313.585,323.420 312.640,323.606 312.200 C 323.793 311.760,324.081 310.770,324.246 310.000 C 324.639 308.170,324.639 41.830,324.246 40.000 C 323.863 38.217,323.254 36.738,321.900 34.300 C 321.160 32.968,316.680 28.416,316.100 28.408 C 315.825 28.403,315.600 28.264,315.600 28.098 C 315.600 27.931,315.015 27.556,314.300 27.264 C 313.585 26.972,312.640 26.580,312.200 26.394 C 311.760 26.207,310.770 25.920,310.000 25.755 C 309.230 25.590,261.755 25.397,204.500 25.326 L 100.400 25.197 100.400 75.937 M278.399 37.800 C 281.906 39.613,283.042 46.662,280.330 49.780 C 280.149 49.989,280.000 50.563,280.000 51.056 C 280.000 51.549,279.820 52.064,279.600 52.200 C 279.380 52.336,279.200 52.876,279.200 53.400 C 279.200 53.924,279.020 54.464,278.800 54.600 C 278.580 54.736,278.400 55.276,278.400 55.800 C 278.400 56.324,278.220 56.864,278.000 57.000 C 277.780 57.136,277.600 57.676,277.600 58.200 C 277.600 58.724,277.420 59.264,277.200 59.400 C 276.980 59.536,276.800 60.076,276.800 60.600 C 276.800 61.124,276.620 61.664,276.400 61.800 C 276.180 61.936,276.000 62.476,276.000 63.000 C 276.000 63.524,275.820 64.064,275.600 64.200 C 275.380 64.336,275.200 64.724,275.200 65.062 C 275.200 67.028,271.626 69.605,268.916 69.593 C 264.432 69.574,260.709 63.802,262.790 60.095 C 263.004 59.713,264.011 56.790,265.028 53.600 C 269.390 39.909,269.528 39.608,272.200 37.948 C 273.669 37.036,276.779 36.962,278.399 37.800 M152.529 44.196 C 153.314 44.524,154.387 45.224,154.914 45.751 C 156.095 46.931,169.115 73.014,169.216 74.400 C 169.692 80.965,162.946 84.572,158.295 80.241 C 156.313 78.395,143.600 52.553,143.600 50.370 C 143.600 48.052,146.080 44.400,147.655 44.400 C 148.039 44.400,148.464 44.220,148.600 44.000 C 148.961 43.415,150.890 43.511,152.529 44.196 M309.631 69.310 C 313.873 72.168,313.885 78.349,309.653 80.719 C 306.363 82.561,289.968 87.600,287.264 87.600 C 281.451 87.600,278.802 80.777,282.989 76.589 C 284.142 75.437,285.130 74.800,285.766 74.800 C 286.309 74.800,286.864 74.620,287.000 74.400 C 287.136 74.180,287.676 74.000,288.200 74.000 C 288.724 74.000,289.264 73.820,289.400 73.600 C 289.536 73.380,290.076 73.200,290.600 73.200 C 291.124 73.200,291.664 73.020,291.800 72.800 C 291.936 72.580,292.457 72.400,292.957 72.400 C 293.457 72.400,293.990 72.277,294.141 72.126 C 296.360 69.907,307.509 67.880,309.631 69.310 M134.331 81.607 C 149.880 89.371,149.795 89.304,149.798 93.681 C 149.801 97.709,145.794 101.215,142.342 100.205 C 141.063 99.830,115.669 87.254,114.347 86.340 C 110.947 83.990,111.259 75.600,114.747 75.600 C 114.996 75.600,115.200 75.431,115.200 75.225 C 115.200 74.740,117.379 74.461,119.331 74.696 C 120.228 74.804,126.445 77.668,134.331 81.607 M265.342 78.230 C 270.645 80.884,272.895 87.110,270.352 92.095 C 269.545 93.676,262.919 103.578,262.386 104.000 C 262.246 104.110,260.988 105.910,259.589 108.000 C 258.190 110.089,256.885 111.979,256.689 112.200 C 256.492 112.420,254.185 115.750,251.560 119.600 C 248.935 123.450,246.566 126.884,246.294 127.232 C 246.022 127.579,245.620 128.139,245.400 128.477 C 243.819 130.901,239.663 136.872,238.679 138.131 L 237.483 139.663 253.075 139.531 C 266.333 139.420,268.840 139.490,269.828 140.000 C 271.983 141.114,274.022 143.061,274.808 144.754 C 275.075 145.329,275.452 146.113,275.647 146.495 C 276.789 148.741,274.803 157.200,273.133 157.200 C 272.950 157.200,272.800 157.393,272.800 157.628 C 272.800 157.863,272.250 158.855,271.578 159.831 C 270.257 161.753,270.312 162.400,271.800 162.400 C 272.324 162.400,272.851 162.559,272.970 162.752 C 273.090 162.946,273.596 163.197,274.094 163.310 C 274.592 163.422,278.510 164.586,282.800 165.895 C 287.090 167.205,291.590 168.506,292.800 168.787 C 294.010 169.068,295.360 169.442,295.800 169.619 C 296.240 169.795,297.140 170.053,297.800 170.191 C 299.951 170.642,302.169 171.148,303.800 171.560 C 304.680 171.782,305.940 172.079,306.600 172.219 C 310.522 173.050,312.800 175.541,312.800 179.000 C 312.800 182.248,311.764 183.371,305.200 187.231 C 302.450 188.849,300.140 190.314,300.067 190.486 C 299.993 190.659,299.678 190.800,299.367 190.800 C 299.055 190.800,298.800 190.980,298.800 191.200 C 298.800 191.420,298.564 191.600,298.275 191.600 C 297.987 191.600,297.402 191.920,296.975 192.311 C 296.549 192.702,295.570 193.464,294.800 194.005 C 281.345 203.457,280.948 209.462,293.004 221.200 C 298.485 226.537,298.882 226.899,301.207 228.686 C 304.667 231.345,305.453 232.114,306.355 233.720 C 307.979 236.612,307.009 240.449,304.185 242.300 C 302.757 243.235,296.730 243.658,296.236 242.858 C 295.909 242.329,282.689 241.988,278.200 242.392 C 273.515 242.814,268.736 243.676,266.900 244.430 C 266.405 244.634,265.505 245.001,264.900 245.247 C 264.295 245.492,263.487 245.852,263.105 246.047 C 262.723 246.241,262.138 246.400,261.805 246.400 C 261.472 246.400,261.200 246.580,261.200 246.800 C 261.200 247.020,260.840 247.200,260.400 247.200 C 259.960 247.200,259.600 247.380,259.600 247.600 C 259.600 247.820,259.404 248.000,259.165 248.000 C 255.905 248.000,244.800 261.304,244.800 265.210 C 244.800 265.619,244.620 266.064,244.400 266.200 C 244.180 266.336,244.000 266.876,244.000 267.400 C 244.000 267.924,243.820 268.464,243.600 268.600 C 243.380 268.736,243.200 269.546,243.200 270.400 C 243.200 271.254,243.020 272.064,242.800 272.200 C 242.580 272.336,242.389 273.652,242.376 275.124 C 242.363 276.596,242.214 278.640,242.044 279.668 C 241.875 280.695,241.903 282.821,242.105 284.392 C 242.861 290.250,240.222 294.000,235.344 294.000 C 233.915 294.000,232.800 293.825,232.800 293.600 C 232.800 293.380,232.547 293.200,232.237 293.200 C 231.927 293.200,230.353 291.715,228.737 289.900 C 224.921 285.612,211.784 272.400,211.337 272.400 C 211.147 272.400,210.533 271.975,209.972 271.455 C 206.962 268.663,199.446 264.365,195.600 263.236 C 194.610 262.945,193.350 262.563,192.800 262.387 C 188.543 261.021,179.791 261.186,172.400 262.770 C 167.819 263.752,161.525 265.523,159.400 266.428 C 150.715 270.125,146.380 269.849,144.190 265.459 C 143.527 264.130,143.383 260.000,144.000 260.000 C 144.220 260.000,144.400 259.640,144.400 259.200 C 144.400 258.760,144.559 258.400,144.753 258.400 C 144.948 258.400,145.210 258.085,145.336 257.700 C 145.462 257.315,146.112 256.100,146.781 255.000 C 147.950 253.078,151.784 245.455,152.414 243.800 C 155.120 236.698,154.729 233.839,150.821 232.148 C 150.039 231.809,149.087 231.368,148.705 231.166 C 148.323 230.965,147.594 230.800,147.085 230.800 C 146.576 230.800,145.989 230.637,145.780 230.439 C 145.571 230.240,144.500 229.966,143.400 229.830 C 142.300 229.693,140.050 229.399,138.400 229.175 C 136.750 228.952,131.530 228.608,126.800 228.412 C 116.404 227.979,115.881 227.882,114.047 226.043 C 110.198 222.183,111.287 218.391,117.600 213.667 C 119.250 212.433,120.690 211.325,120.800 211.205 C 120.910 211.086,122.245 209.911,123.766 208.594 C 130.063 203.145,137.957 192.341,137.993 189.124 C 137.997 188.752,138.180 188.336,138.400 188.200 C 138.620 188.064,138.800 187.434,138.800 186.800 C 138.800 186.166,138.955 185.551,139.144 185.434 C 139.620 185.140,140.125 180.488,140.124 176.400 C 140.124 171.161,138.876 162.839,137.230 157.100 C 136.994 156.275,136.636 155.015,136.436 154.300 C 136.108 153.127,135.019 149.315,133.952 145.600 C 132.876 141.858,132.756 140.849,133.191 139.232 C 133.783 137.033,135.852 135.033,138.126 134.460 C 140.255 133.924,140.138 133.891,147.112 137.045 C 148.273 137.570,149.478 138.000,149.788 138.000 C 150.099 138.000,150.451 138.159,150.570 138.352 C 150.690 138.546,151.196 138.803,151.694 138.924 C 152.192 139.045,153.320 139.349,154.200 139.599 C 162.810 142.044,170.489 142.602,170.738 140.800 C 170.814 140.250,171.006 139.620,171.164 139.400 C 171.322 139.180,171.863 137.650,172.367 136.000 C 172.870 134.350,173.444 132.687,173.641 132.305 C 173.838 131.923,174.000 131.259,174.000 130.829 C 174.000 130.399,174.180 129.936,174.400 129.800 C 174.620 129.664,174.800 129.124,174.800 128.600 C 174.800 128.076,174.980 127.536,175.200 127.400 C 175.420 127.264,175.600 126.724,175.600 126.200 C 175.600 125.676,175.780 125.136,176.000 125.000 C 176.220 124.864,176.400 124.324,176.400 123.800 C 176.400 123.276,176.580 122.736,176.800 122.600 C 177.020 122.464,177.200 121.924,177.200 121.400 C 177.200 120.876,177.380 120.336,177.600 120.200 C 177.820 120.064,178.000 119.601,178.000 119.171 C 178.000 118.741,178.159 118.077,178.354 117.695 C 178.549 117.313,179.098 115.740,179.574 114.200 C 180.051 112.660,180.592 111.040,180.775 110.600 C 180.959 110.160,182.139 106.560,183.397 102.600 C 184.654 98.640,185.844 95.087,186.042 94.705 C 186.239 94.323,186.400 93.659,186.400 93.229 C 186.400 92.799,186.580 92.336,186.800 92.200 C 187.020 92.064,187.200 91.524,187.200 91.000 C 187.200 90.476,187.380 89.936,187.600 89.800 C 187.820 89.664,188.000 89.124,188.000 88.600 C 188.000 88.076,188.180 87.536,188.400 87.400 C 188.620 87.264,188.800 86.724,188.800 86.200 C 188.800 85.676,188.980 85.136,189.200 85.000 C 189.420 84.864,189.601 84.448,189.602 84.076 C 189.606 82.741,192.541 79.506,194.800 78.346 L 197.000 77.217 230.142 77.209 L 263.284 77.200 265.342 78.230 M297.385 268.200 C 299.766 269.630,301.791 270.800,301.885 270.800 C 301.979 270.800,302.841 271.340,303.800 272.000 C 304.759 272.660,305.737 273.200,305.972 273.200 C 306.207 273.200,306.400 273.359,306.400 273.553 C 306.400 273.748,306.715 274.007,307.100 274.129 C 311.256 275.447,315.538 281.955,313.200 283.400 C 312.980 283.536,312.800 283.961,312.800 284.345 C 312.800 285.389,310.433 287.390,308.468 288.006 C 306.137 288.737,304.840 288.229,297.103 283.551 C 293.746 281.521,290.343 279.508,289.540 279.077 C 283.604 275.893,282.812 269.440,287.989 266.437 C 290.624 264.908,292.486 265.258,297.385 268.200 M132.372 275.280 C 136.774 276.759,138.816 280.888,136.940 284.515 C 135.661 286.989,123.688 304.610,122.750 305.400 C 117.781 309.583,110.102 305.026,112.042 299.045 C 112.566 297.430,122.186 282.328,122.858 282.067 C 123.046 281.993,123.200 281.678,123.200 281.367 C 123.200 281.055,123.380 280.800,123.600 280.800 C 123.820 280.800,124.000 280.612,124.000 280.383 C 124.000 280.154,124.360 279.580,124.800 279.108 C 125.240 278.636,125.602 278.058,125.605 277.825 C 125.611 277.297,128.179 275.600,128.971 275.600 C 129.291 275.600,129.664 275.420,129.800 275.200 C 130.122 274.680,130.632 274.696,132.372 275.280 M160.413 282.150 C 161.682 283.012,162.237 283.808,163.243 286.200 C 164.272 288.647,169.600 305.441,169.600 306.238 C 169.600 311.786,161.442 315.224,158.085 311.092 C 157.208 310.013,156.000 307.532,156.000 306.811 C 156.000 306.391,155.820 305.936,155.600 305.800 C 155.380 305.664,155.200 305.201,155.200 304.771 C 155.200 304.341,155.023 303.677,154.806 303.295 C 153.798 301.517,150.000 289.027,150.000 287.490 C 150.000 282.340,156.094 279.215,160.413 282.150 M273.095 282.300 C 274.516 283.537,276.000 286.034,276.000 287.189 C 276.000 287.609,276.180 288.064,276.400 288.200 C 276.620 288.336,276.800 288.876,276.800 289.400 C 276.800 289.924,276.980 290.464,277.200 290.600 C 277.420 290.736,277.600 291.276,277.600 291.800 C 277.600 292.324,277.780 292.864,278.000 293.000 C 278.220 293.136,278.400 293.676,278.400 294.200 C 278.400 294.724,278.580 295.264,278.800 295.400 C 279.020 295.536,279.200 296.076,279.200 296.600 C 279.200 297.124,279.380 297.664,279.600 297.800 C 279.820 297.936,280.000 298.476,280.000 299.000 C 280.000 299.524,280.180 300.064,280.400 300.200 C 280.620 300.336,280.800 300.851,280.800 301.344 C 280.800 301.837,281.015 302.455,281.278 302.718 C 282.297 303.737,281.911 308.516,280.679 310.131 C 277.919 313.751,272.880 313.792,269.943 310.218 C 269.276 309.407,268.350 306.802,265.030 296.400 C 264.012 293.210,263.004 290.287,262.790 289.905 C 259.818 284.611,268.438 278.249,273.095 282.300 " stroke="none" fill="#f4142c" fill-rule="evenodd"></path></g></svg><style>@media (prefers-color-scheme: light) { :root { filter: none; } }
@media (prefers-color-scheme: dark) { :root { filter: contrast(1) brightness(1.1); } }
</style></svg>